<svg width="19" height="19" fill="none" xmlns="http://www.w3.org/2000/svg"><path d="M.95 10h16.182l-5.922 7.785a.537.537 0 0 0-.083.164.647.647 0 0 0 0 .387.528.528 0 0 0 .083.164.397.397 0 0 0 .125.11.306.306 0 0 0 .294 0 .398.398 0 0 0 .124-.11l6.565-8.645a.453.453 0 0 0 .064-.115l.02-.05.01-.05a.274.274 0 0 0 0-.043.657.657 0 0 0 0-.195.274.274 0 0 0 0-.042l-.01-.05-.02-.05a.453.453 0 0 0-.065-.115L11.754.5a.396.396 0 0 0-.124-.111.303.303 0 0 0-.147-.04.307.307 0 0 0-.148.04.395.395 0 0 0-.124.11.53.53 0 0 0-.083.163.64.64 0 0 0 0 .383.53.53 0 0 0 .083.162L17.132 9H.95c-.1 0-.197.053-.269.146A.59.59 0 0 0 .57 9.5c0 .132.04.26.111.353A.341.341 0 0 0 .95 10Z" fill="#000"/></svg>