<svg width="18" height="18" fill="none" xmlns="http://www.w3.org/2000/svg"><path d="M17.46 9A8.459 8.459 0 0 0 2.41 3.696 8.46 8.46 0 0 0 8.96 17.46a8.448 8.448 0 0 0 5.87-2.34.359.359 0 0 0 .09-.085A8.437 8.437 0 0 0 17.46 9ZM9 1.26a7.74 7.74 0 0 1 5.738 12.928 6.396 6.396 0 0 0-3.96-3.271 3.65 3.65 0 1 0-3.564 0 6.393 6.393 0 0 0-3.96 3.272A7.666 7.666 0 0 1 1.26 9 7.74 7.74 0 0 1 9 1.26Zm0 9.405a2.93 2.93 0 1 1 0-5.861 2.93 2.93 0 0 1 0 5.861Zm-5.198 4.066a5.712 5.712 0 0 1 10.396 0 7.727 7.727 0 0 1-10.396 0Z" fill="#000"/></svg>